<?xml version="1.0" encoding="UTF-8" ?>
<svg version="1.1" width="80" height="80" xmlns="http://www.w3.org/2000/svg" shape-rendering="crispEdges">
<rect x="20" y="20" width="10" height="10" fill="#233F63" />
<rect x="30" y="20" width="10" height="10" fill="#233F63" />
<rect x="40" y="20" width="10" height="10" fill="#233F63" />
<rect x="50" y="20" width="10" height="10" fill="#233F63" />
<rect x="20" y="30" width="10" height="10" fill="#FFFFFF" />
<rect x="30" y="30" width="10" height="10" fill="#C3D4EA" />
<rect x="40" y="30" width="10" height="10" fill="#C3D4EA" />
<rect x="50" y="30" width="10" height="10" fill="#FFFFFF" />
<rect x="20" y="40" width="10" height="10" fill="#233F63" />
<rect x="30" y="40" width="10" height="10" fill="#3B5F8D" />
<rect x="40" y="40" width="10" height="10" fill="#3B5F8D" />
<rect x="50" y="40" width="10" height="10" fill="#233F63" />
<rect x="20" y="50" width="10" height="10" fill="#CBDBFC" />
<rect x="30" y="50" width="10" height="10" fill="#CBDBFC" />
<rect x="40" y="50" width="10" height="10" fill="#CBDBFC" />
<rect x="50" y="50" width="10" height="10" fill="#CBDBFC" />
<rect x="10" y="60" width="10" height="10" fill="#233F63" />
<rect x="20" y="60" width="10" height="10" fill="#233F63" />
<rect x="30" y="60" width="10" height="10" fill="#CBDBFC" />
<rect x="40" y="60" width="10" height="10" fill="#CBDBFC" />
<rect x="50" y="60" width="10" height="10" fill="#233F63" />
<rect x="60" y="60" width="10" height="10" fill="#233F63" />
</svg>